<svg xmlns="http://www.w3.org/2000/svg" version="1.1" xmlns:xlink="http://www.w3.org/1999/xlink" xmlns:svgjs="http://svgjs.dev/svgjs" width="1500" height="526" viewBox="0 0 1500 526"><g transform="matrix(1,0,0,1,-0.9090909090909918,0.7766390501199112)"><svg viewBox="0 0 396 139" data-background-color="#444444" preserveAspectRatio="xMidYMid meet" height="526" width="1500" xmlns="http://www.w3.org/2000/svg" xmlns:xlink="http://www.w3.org/1999/xlink"><g id="tight-bounds" transform="matrix(1,0,0,1,0.2400000000000091,-0.2052335132446217)"><svg viewBox="0 0 395.52 139.41046702648927" height="139.41046702648927" width="395.52"><g><svg viewBox="0 0 693.4736936849251 244.43135999999998" height="139.41046702648927" width="395.52"><g transform="matrix(1,0,0,1,0,8.857410449251248)"><svg viewBox="0 0 395.52 226.7165391014975" height="226.7165391014975" width="395.52"><g id="textblocktransform"><svg viewBox="0 0 395.52 226.7165391014975" height="226.7165391014975" width="395.52" id="textblock"><g><svg viewBox="0 0 395.52 226.7165391014975" height="226.7165391014975" width="395.52"><g transform="matrix(1,0,0,1,0,0)"><svg width="395.52" viewBox="2.5 -32 60.1 34.45" height="226.7165391014975" data-palette-color="#ffffff"><path d="M29.8-3.75L24.05 2.45 11-10.55 11 0 2.5 0 2.5-28.8Q3.7-29.6 5.73-30.33 7.75-31.05 10.25-31.53 12.75-32 15.35-32L15.35-32Q21.7-32 25.28-29.05 28.85-26.1 28.85-20.9L28.85-20.9Q28.85-16.95 26.88-14.3 24.9-11.65 21.55-10.4L21.55-10.4 29.8-3.75ZM15.75-15.6L15.75-15.6Q17.95-15.6 19.15-17 20.35-18.4 20.35-20.55L20.35-20.55Q20.35-22.75 19.07-24.08 17.8-25.4 15.15-25.4L15.15-25.4Q12.65-25.4 11-24.4L11-24.4 11-20.5Q11-18.15 12.38-16.88 13.75-15.6 15.75-15.6ZM45.8 0L33.8 0 33.8-30.05Q36.15-31.05 39.2-31.53 42.25-32 45.15-32L45.15-32Q53.7-32 58.15-27.88 62.6-23.75 62.6-15.85L62.6-15.85Q62.6-10.25 60.47-6.75 58.35-3.25 54.55-1.63 50.75 0 45.8 0L45.8 0ZM42.4-24.75L42.4-6.5 45.35-6.5Q49.15-6.5 51.32-8.8 53.5-11.1 53.5-15.85L53.5-15.85Q53.5-20.45 51.4-22.78 49.3-25.1 45.3-25.1L45.3-25.1Q44.6-25.1 43.85-25.03 43.1-24.95 42.4-24.75L42.4-24.75Z" opacity="1" transform="matrix(1,0,0,1,0,0)" fill="#ffffff" class="wordmark-text-0" data-fill-palette-color="primary" id="text-0"></path></svg></g></svg></g></svg></g></svg></g><g transform="matrix(1,0,0,1,449.0423336849251,0)"><svg viewBox="0 0 244.43135999999998 244.43135999999998" height="244.43135999999998" width="244.43135999999998"><g data-palette-color="#00d1cd"><rect width="66.8112384" height="244.43135999999998" fill="#00d1cd" stroke="transparent" data-fill-palette-color="accent" x="0" fill-opacity="1"></rect><rect width="66.8112384" height="244.43135999999998" fill="#00d1cd" stroke="transparent" data-fill-palette-color="accent" x="81.47711999999999" fill-opacity="0.75"></rect><rect width="66.8112384" height="244.43135999999998" fill="#00d1cd" stroke="transparent" data-fill-palette-color="accent" x="162.95423999999997" fill-opacity="0.5"></rect></g></svg></g></svg></g><defs></defs></svg><rect width="395.52" height="139.41046702648927" fill="none" stroke="none" visibility="hidden"></rect></g></svg></g></svg>